<svg height="512" viewBox="0 0 54 58" width="512" xmlns="http://www.w3.org/2000/svg">
    <g id="Page-1" fill="none" fill-rule="evenodd">
        <g id="029---Namaste" fill="rgb(0,0,0)" fill-rule="nonzero">
            <path id="Shape"
                  d="m29.888 28.011c-1.1121729.032444-2.1597782.5297663-2.888 1.371-.7282218-.8412337-1.7758271-1.338556-2.888-1.371.551708-3.9139188 1.5198655-7.7577187 2.888-11.466 1.3681345 3.7082813 2.336292 7.5520812 2.888 11.466zm-22.888-1.011c-.00402643-9.0970321 6.1317073-17.05075704 14.9318045-19.35603322 8.8000973-2.30527619 18.0473235 1.6187238 22.5038733 9.54937152 4.4565498 7.9306478 2.9995702 17.8697714-3.5456778 24.1876617l-.741-10.673c-.1240968-2.455832-.7546289-4.8594803-1.852-7.06l-4.683-12.348c-.011457-.0314488-.024815-.0621721-.04-.092-.5963338-1.1873158-1.7433039-2.00103423-3.0609679-2.17160496-1.3176639-.17057074-2.6340263.32427092-3.5130321 1.32060496-.8793005-.9961824-2.1958856-1.49070136-3.5135791-1.31972592-1.3176934.17097544-2.4644741.98512492-3.0604209 2.17272592-.015185.0298279-.028543.0605512-.04.092l-4.686 12.346c-1.0952275 2.1948686-1.7253871 4.5922668-1.851 7.042l-.74 10.693c-3.91600954-3.758247-6.12341591-8.9553538-6.109-14.383z"/>
            <path id="Shape"
                  d="m28 2v-1c0-.55228475-.4477153-1-1-1s-1 .44771525-1 1v1c0 .55228475.4477153 1 1 1s1-.44771525 1-1z"/>
            <path id="Shape"
                  d="m14.5 6.349c.3570824-.00036605.6868739-.19110957.8652566-.50044368.1783827-.30933412.1782849-.69031384-.0002566-.99955632l-.5-.866c-.2780058-.47421361-.886647-.63512861-1.3626943-.36027453s-.640996.88241457-.3693057 1.36027453l.5.866c.1788068.30970282.5093863.50034843.867.5z"/>
            <path id="Shape"
                  d="m3.983 14.866.867.5c.30957042.1814844.69264947.1831833 1.00381742.0044519.31116795-.1787315.50271357-.5104885.50192468-.8693336-.00078888-.3588451-.19379132-.6897567-.5057421-.8671183l-.867-.5c-.47785996-.2716903-1.08542045-.1067416-1.36027453.3693057s-.11393908 1.0846885.36027453 1.3626943z"/>
            <path id="Shape"
                  d="m2 28c.55228475 0 1-.4477153 1-1s-.44771525-1-1-1h-1c-.55228475 0-1 .4477153-1 1s.44771525 1 1 1z"/>
            <path id="Shape"
                  d="m3.617 40.5c.27615038.4782682.88771969.6421293 1.366.366l.867-.5c.31195078-.1773616.50495322-.5082732.5057421-.8671183.00078889-.3588451-.19075673-.6906021-.50192468-.8693336-.31116795-.1787314-.694247-.1770325-1.00381742.0044519l-.867.5c-.47826816.2761504-.64212934.8877197-.366 1.366z"/>
            <path id="Shape"
                  d="m50.017 39.134-.867-.5c-.3095704-.1814844-.6926495-.1831833-1.0038174-.0044519-.311168.1787315-.5027136.5104885-.5019247.8693336s.1937913.6897567.5057421.8671183l.867.5c.47786.2716903 1.0854205.1067416 1.3602745-.3693057.2748541-.4760473.1139391-1.0846885-.3602745-1.3626943z"/>
            <path id="Shape"
                  d="m53 28c.5522847 0 1-.4477153 1-1s-.4477153-1-1-1h-1c-.5522847 0-1 .4477153-1 1s.4477153 1 1 1z"/>
            <path id="Shape"
                  d="m50.383 13.5c-.2761504-.4782682-.8877197-.6421293-1.366-.366l-.867.5c-.3119508.1773616-.5049532.5082732-.5057421.8671183s.1907567.6906021.5019247.8693336c.3111679.1787314.694247.1770325 1.0038174-.0044519l.867-.5c.4782682-.2761504.6421293-.8877197.366-1.366z"/>
            <path id="Shape"
                  d="m39.5 6.349c.3576137.00034843.6881932-.19029718.867-.5l.5-.866c.2716903-.47785996.1067416-1.08542045-.3693057-1.36027453s-1.0846885-.11393908-1.3626943.36027453l-.5.866c-.1785415.30924248-.1786393.6902222-.0002566.99955632.1783827.30933411.5081742.50007763.8652566.50044368z"/>
            <path id="Shape"
                  d="m22 54c-.813 0-3.108 1.239-6.827 3.686-.2309533.1524475-.5140975.2040924-.784.143l-10.7-2.518c-.42491282-.0970633-.73801526-.4581597-.77390856-.8925373-.03589331-.4343776.21369118-.8419697.61690856-1.0074627 2.276-.966 4.5-1.764 6.342-2.422 3.938-1.409 5.126-1.835 5.126-2.989v-4.931l.851-12.258c.1106269-2.1922471.6755676-4.3375917 1.659-6.3l.047-.106 4.68-12.341c.4322764-.8070338 1.3573399-1.2175136 2.2457825-.9965245.8884426.2209892 1.5134018 1.0170181 1.5172175 1.9325245v.1c-.0393321.2491804-.1026256.4939824-.189.731-.127.4-.3.9-.5 1.488-1.028 2.99-2.9 8.447-3.248 13.184-1.2721274.7040878-2.0620116 2.0430238-2.063 3.497v12c0 .5522847.4477153 1 1 1s1-.4477153 1-1v-12c.0000944-.821957.5030746-1.5601637 1.268-1.861.0538061-.0138225.1063309-.0322229.157-.055.1974782-.0591245.4028898-.0874571.609-.084 1.1217686.0643591 1.9910064 1.005665 1.966 2.129v16.871c0 2.405-1.529 5-4 5zm17.611 3.829c-.2699025.0610924-.5530467.0094475-.784-.143-3.719-2.447-6.014-3.686-6.827-3.686-2.471 0-4-2.595-4-5v-16.922c-.0253974-.6457256.2627702-1.2639317.7736377-1.6596853s1.1814736-.5202805 1.8003623-.3343147c.0515267.0223437.1046804.0407303.159.055.7645323.3011561 1.2670673 1.0392916 1.267 1.861v12c0 .5522847.4477153 1 1 1s1-.4477153 1-1v-12c.0011096-1.4539959-.7868629-2.7940852-2.058-3.5-.346-4.737-2.22-10.194-3.248-13.184-.2-.589-.375-1.092-.506-1.5-.0854664-.2320907-.1484227-.4718602-.188-.716v-.1c.0030268-.9166202.628778-1.7138555 1.5184367-1.934557s1.8154725.1916303 2.2465633 1.000557l4.68 12.334.047.106c.9856899 1.9683734 1.5510055 4.1203189 1.66 6.319l.848 12.175v5c0 1.154 1.188 1.58 5.128 2.99 1.838.658 4.066 1.456 6.342 2.422.4032174.165493.6528019.5730851.6169086 1.0074627s-.3489958.795474-.7739086.8925373z"/>
        </g>
    </g>
</svg>